<?xml version="1.0" encoding="utf-8"?>
<!-- Generator: Adobe Illustrator 16.0.0, SVG Export Plug-In . SVG Version: 6.00 Build 0)  -->
<!DOCTYPE svg PUBLIC "-//W3C//DTD SVG 1.1//EN" "http://www.w3.org/Graphics/SVG/1.1/DTD/svg11.dtd">
<svg version="1.1" id="图层_1" xmlns="http://www.w3.org/2000/svg" xmlns:xlink="http://www.w3.org/1999/xlink" x="0px" y="0px"
	 width="42px" height="42px" viewBox="0 0 42 42" enable-background="new 0 0 42 42" xml:space="preserve">
<g>
	<g>
		<linearGradient id="SVGID_1_" gradientUnits="userSpaceOnUse" x1="33.8994" y1="23.5596" x2="33.8994" y2="32.9899">
			<stop  offset="0" style="stop-color:#FA816E"/>
			<stop  offset="0.4147" style="stop-color:#F74A5C"/>
			<stop  offset="1" style="stop-color:#F51D2C"/>
		</linearGradient>
		<path fill="url(#SVGID_1_)" d="M30.787,23.887c1.256,0,2.361,0.592,3.113,1.493c0.752-0.9,1.859-1.493,3.111-1.493
			c2.258,0,4.102,1.858,4.102,4.147c0,4.693-5.225,7.155-6.988,8.641L33.9,36.87l-0.225-0.195c-1.764-1.486-6.99-3.947-6.99-8.641
			c0-2.287,1.848-4.147,4.105-4.147H30.787z"/>
	</g>
	<linearGradient id="SVGID_2_" gradientUnits="userSpaceOnUse" x1="17.2134" y1="4.3506" x2="17.2134" y2="40.2308">
		<stop  offset="0" style="stop-color:#29CDFF"/>
		<stop  offset="1" style="stop-color:#0A60FF"/>
	</linearGradient>
	<path fill="url(#SVGID_2_)" d="M33.541,38.609c-3.209,0.974-8.342,1.146-13.899,1.146c-10.682,0-18.756-1.267-18.756-4.328
		c0-5.813,5.575-10.931,13.589-12.494c-5.45-2.455-7.877-8.863-5.423-14.313c1.75-3.882,5.611-6.377,9.869-6.377
		c5.976-0.002,10.823,4.84,10.825,10.816c0.002,4.159-2.379,7.951-6.129,9.755c1.264,0.239,2.482,0.589,3.635,1.029
		c-1.172,1.054-1.84,2.555-1.838,4.129C25.414,33.381,30.609,36.563,33.541,38.609L33.541,38.609z"/>
</g>
</svg>
